<?xml version="1.0" standalone="no"?>
<!DOCTYPE svg PUBLIC "-//W3C//DTD SVG 20010904//EN"
 "http://www.w3.org/TR/2001/REC-SVG-20010904/DTD/svg10.dtd">
<svg version="1.0" xmlns="http://www.w3.org/2000/svg"
 width="1919.000000pt" height="1279.000000pt" viewBox="0 0 1919.000000 1279.000000"
 preserveAspectRatio="xMidYMid meet">

<g transform="translate(0.000000,1279.000000) scale(0.100000,-0.100000)"
fill="#000000" stroke="none">
<path d="M10 9715 l0 -3065 51 25 c52 27 52 28 32 81 -5 14 22 19 177 36 148
17 1129 15 1460 -2 338 -17 1399 -5 1560 18 147 21 675 23 820 3 52 -7 217
-17 365 -21 203 -6 314 -14 450 -33 270 -39 470 -57 712 -66 232 -8 536 0 668
18 44 6 276 15 515 21 239 6 804 22 1255 35 684 21 837 23 925 13 158 -18 595
-15 698 5 46 8 94 23 107 31 56 37 58 194 6 456 -74 379 -150 1080 -185 1715
-9 149 -18 317 -22 375 l-6 105 36 46 c93 122 335 217 681 268 143 20 244 31
740 77 154 14 312 30 350 34 39 5 174 9 301 9 231 1 324 10 377 38 26 13 29
13 34 -5 4 -19 25 -19 716 -25 709 -6 911 -13 1272 -42 459 -38 911 -121 1185
-217 104 -37 397 -194 404 -216 3 -10 12 -75 21 -147 23 -201 18 -464 -10
-537 -6 -16 2 -14 61 9 152 59 446 154 569 183 215 52 310 62 495 57 182 -6
283 -24 435 -77 455 -160 838 -567 1005 -1069 88 -263 97 -489 40 -955 -11
-88 -18 -161 -16 -163 2 -2 50 -13 107 -24 207 -40 437 -40 581 0 41 12 91 21
111 21 34 0 37 2 37 29 0 37 17 50 23 19 3 -13 5 1246 4 2797 -1 1551 2 2907
7 3013 l8 192 -9581 0 -9581 0 0 -3065z"/>
<path d="M16500 8264 c-156 -38 -265 -97 -395 -217 -136 -124 -273 -308 -380
-509 -34 -66 -72 -121 -104 -152 -28 -27 -48 -53 -45 -58 3 -4 -7 -8 -21 -8
-60 0 -107 -87 -151 -280 -20 -92 -54 -354 -54 -425 l0 -25 38 19 c62 32 179
51 322 54 74 1 457 1 850 -1 393 -2 766 0 828 4 l113 7 28 34 c142 172 203
629 126 928 -112 429 -401 636 -905 651 -130 3 -156 1 -250 -22z"/>
</g>
</svg>
